<svg xmlns="http://www.w3.org/2000/svg" viewBox="0 0 1448 1086"><style>.j{font-family:'Noto Sans JP','Yu Gothic',Meiryo,sans-serif}.n{fill:#06275f}.o{fill:#f06a00}.h{font-weight:900}.b{font-weight:800}.card{fill:#fff;stroke:#c7d4e3;stroke-width:2}.small{font-size:24px}.body{font-size:27px}</style><rect width="1448" height="1086" fill="#fff"/><path d="M1270 0h178v180z" class="n"/><path d="M1210 0h60l178 180v60z" fill="#e8eef6"/><text x="50" y="85" class="j n h" font-size="65">企業の手作業を減らし、</text><text x="50" y="155" class="j n h" font-size="65">本来の仕事に集中できる状態へ</text><path d="M52 186h92" stroke="#f06a00" stroke-width="7" stroke-linecap="round"/><text x="52" y="228" class="j n b small">エイデックマネジメント｜企業向け業務改善・DX支援</text><rect x="48" y="278" width="575" height="570" rx="24" fill="#f6f9fd" stroke="#89a5c6" stroke-width="2"/><path d="M48 302a24 24 0 0 1 24-24h527a24 24 0 0 1 24 24v58H48z" class="n"/><text x="335" y="329" class="j h" font-size="31" fill="#fff" text-anchor="middle">分散・属人化した手作業</text><g class="j b body"><g><rect x="78" y="392" width="190" height="92" rx="15" class="card"/><text x="112" y="449" class="o" font-size="34">✎</text><text x="174" y="449" class="n" text-anchor="middle">転記</text></g><g><rect x="390" y="392" width="190" height="92" rx="15" class="card"/><text x="425" y="449" class="o" font-size="34">▥</text><text x="492" y="449" class="n" text-anchor="middle">集計</text></g><g><rect x="226" y="518" width="220" height="92" rx="15" class="card"/><text x="260" y="575" class="o" font-size="34">⌕</text><text x="344" y="575" class="n" text-anchor="middle">確認</text></g><g><rect x="76" y="645" width="245" height="92" rx="15" class="card"/><text x="108" y="702" class="o" font-size="34">☎</text><text x="220" y="702" class="n" text-anchor="middle">問い合わせ対応</text></g><g><rect x="353" y="645" width="230" height="92" rx="15" class="card"/><text x="386" y="702" class="o" font-size="34">▰</text><text x="488" y="702" class="n" text-anchor="middle">情報検索</text></g></g><path d="M72 773h528" stroke="#9eb3cb" stroke-width="2" stroke-dasharray="6 7"/><text x="335" y="818" class="j n b" font-size="23" text-anchor="middle">時間がかかる・ミスが起きる・担当者に依存する</text><path d="M642 542h56v-34l56 59-56 59v-34h-56z" class="n"/><rect x="730" y="278" width="670" height="570" rx="24" fill="#fffaf5" stroke="#f06a00" stroke-width="2"/><path d="M730 302a24 24 0 0 1 24-24h622a24 24 0 0 1 24 24v58H730z" class="o"/><text x="1065" y="329" class="j h" font-size="29" fill="#fff" text-anchor="middle">仕組み化・自動化による業務の最適化</text><g class="j n b body"><circle cx="790" cy="430" r="34" fill="#fff0e4"/><text x="790" y="442" class="o" font-size="38" text-anchor="middle">◷</text><text x="845" y="439">作業時間の削減</text><line x1="845" y1="463" x2="1060" y2="463" stroke="#efb98d"/><circle cx="790" cy="525" r="34" fill="#fff0e4"/><text x="790" y="537" class="o" font-size="38" text-anchor="middle">✓</text><text x="845" y="534">ミスの減少</text><line x1="845" y1="558" x2="1060" y2="558" stroke="#efb98d"/><circle cx="790" cy="620" r="34" fill="#fff0e4"/><text x="790" y="632" class="o" font-size="38" text-anchor="middle">↗</text><text x="845" y="629">対応スピード向上</text><line x1="845" y1="653" x2="1060" y2="653" stroke="#efb98d"/><circle cx="790" cy="715" r="34" fill="#fff0e4"/><text x="790" y="727" class="o" font-size="38" text-anchor="middle">▥</text><text x="845" y="724">見える化</text></g><g><rect x="1100" y="430" width="235" height="210" rx="10" fill="#eef4fb" stroke="#06275f" stroke-width="9"/><circle cx="1165" cy="500" r="42" fill="#7ca5d2"/><path d="M1165 458a42 42 0 0 1 36 63l-36-21z" class="o"/><rect x="1220" y="485" width="18" height="74" class="n"/><rect x="1250" y="465" width="18" height="94" class="o"/><rect x="1280" y="440" width="18" height="119" class="n"/><rect x="1145" y="660" width="145" height="14" rx="7" class="n"/></g><path d="M752 774h625" stroke="#f06a00" stroke-width="2" stroke-dasharray="6 7"/><text x="1065" y="817" class="j n b" font-size="22" text-anchor="middle">効率化・標準化・データ活用で本来の仕事に集中</text><rect x="48" y="928" width="1352" height="106" rx="24" class="card" stroke="#06275f" stroke-width="4"/><circle cx="105" cy="981" r="39" class="n"/><text x="105" y="995" fill="#fff" font-size="45" text-anchor="middle">◎</text><text x="165" y="990" class="j n h" font-size="27">今日の目的：現場で繰り返している手作業を整理し、最初に改善すべき1業務を見つけること。</text><rect x="1235" y="956" width="140" height="55" rx="28" class="n"/><text x="1305" y="993" fill="#fff" class="j b small" text-anchor="middle">01 / 10</text></svg>