<svg xmlns="http://www.w3.org/2000/svg" viewBox="0 0 1448 1086"><style>.j{font-family:'Noto Sans JP','Yu Gothic',Meiryo,sans-serif}.n{fill:#06275f}.o{fill:#f06a00}.h{font-weight:900}.b{font-weight:800}</style><rect width="1448" height="1086" fill="#fff"/><polygon points="1270,0 1448,0 1448,180" class="n"/><polygon points="1210,0 1270,0 1448,180 1448,240" fill="#e8eef6"/><text x="50" y="92" class="j n h" font-size="66">次回ご提案する内容</text><line x1="52" x2="145" y1="125" y2="125" stroke="#f06a00" stroke-width="7"/><text x="52" y="168" class="j n b" font-size="24">エイデックマネジメント｜企業向け業務改善・DX支援</text><rect x="48" y="230" width="650" height="585" rx="24" fill="#fff" stroke="#06275f" stroke-width="3"/><path d="M48 254a24 24 0 0 1 24-24h602a24 24 0 0 1 24 24v78H48z" class="n"/><text x="373" y="285" fill="#fff" class="j h" font-size="36" text-anchor="middle">次回ご提案</text><g class="j n h" font-size="30"><circle cx="115" cy="420" r="42" fill="#edf4fc"/><text x="115" y="437" font-size="52" text-anchor="middle">▤</text><text x="190" y="430">対象業務の整理結果</text><line x1="185" y1="465" x2="650" y2="465" stroke="#c9d6e4"/><circle cx="115" cy="540" r="42" fill="#edf4fc"/><text x="115" y="557" font-size="52" text-anchor="middle">⇄</text><text x="190" y="550">改善方法の選択肢</text><line x1="185" y1="585" x2="650" y2="585" stroke="#c9d6e4"/><circle cx="115" cy="660" r="42" fill="#edf4fc"/><text x="115" y="677" font-size="52" text-anchor="middle">▣</text><text x="190" y="670">導入イメージ</text><line x1="185" y1="705" x2="650" y2="705" stroke="#c9d6e4"/><circle cx="115" cy="770" r="42" fill="#edf4fc"/><text x="115" y="787" font-size="52" text-anchor="middle">✓</text><text x="190" y="780">必要な進め方・概算の方向性</text></g><path d="M710 500h55v-34l58 59-58 59v-34h-55z" class="n"/><circle cx="1085" cy="405" r="160" fill="#fff3e7"/><rect x="925" y="300" width="260" height="175" rx="10" fill="#eef4fb" stroke="#06275f" stroke-width="8"/><circle cx="1005" cy="365" r="38" fill="#8ca8cb"/><path d="M1005 327a38 38 0 0 1 33 57l-33-19z" class="n"/><rect x="1090" y="350" width="16" height="70" class="n"/><rect x="1120" y="330" width="16" height="90" class="o"/><rect x="1150" y="305" width="16" height="115" class="n"/><rect x="1080" y="425" width="160" height="190" rx="10" fill="#fff" stroke="#06275f" stroke-width="7" transform="rotate(7 1160 520)"/><text x="1160" y="505" class="n" font-size="46" text-anchor="middle">✓ －</text><text x="1160" y="555" class="n" font-size="46" text-anchor="middle">✓ －</text><text x="1160" y="605" class="n" font-size="46" text-anchor="middle">✓ －</text><rect x="785" y="650" width="615" height="170" rx="22" fill="#fff7ef" stroke="#efb27d" stroke-width="2"/><circle cx="860" cy="735" r="48" class="o"/><text x="860" y="753" fill="#fff" font-size="55" text-anchor="middle">♢</text><text x="940" y="705" class="j n h" font-size="31">本日の内容をもとに、</text><text x="940" y="750" class="j n h" font-size="31">御社に合う<tspan class="o">改善の進め方</tspan>を</text><text x="940" y="795" class="j o h" font-size="31">次回具体化します。</text><rect x="48" y="900" width="1352" height="110" rx="24" fill="#fff" stroke="#06275f" stroke-width="4"/><circle cx="105" cy="955" r="39" class="n"/><text x="105" y="970" fill="#fff" font-size="45" text-anchor="middle">◎</text><text x="165" y="964" class="j n h" font-size="28">まずは、どの業務から見直すのがよさそうか、一緒に整理してみませんか？</text><rect x="1235" y="928" width="140" height="55" rx="28" class="n"/><text x="1305" y="965" fill="#fff" class="j b" font-size="24" text-anchor="middle">10 / 10</text></svg>