<svg xmlns="http://www.w3.org/2000/svg" viewBox="0 0 1448 1086"><style>.j{font-family:'Noto Sans JP','Yu Gothic',Meiryo,sans-serif}.n{fill:#06275f}.o{fill:#f06a00}.h{font-weight:900}.b{font-weight:800}.row{font-size:28px}</style><rect width="1448" height="1086" fill="#fff"/><path d="M1270 0h178v180z" class="n"/><path d="M1210 0h60l178 180v60z" fill="#e8eef6"/><text x="50" y="92" class="j n h" font-size="66">エイデックの支援は大きく2つ</text><path d="M52 125h92" stroke="#f06a00" stroke-width="7" stroke-linecap="round"/><text x="52" y="168" class="j n b" font-size="24">エイデックマネジメント｜企業向け業務改善・DX支援</text><rect x="48" y="235" width="610" height="600" rx="24" fill="#fff" stroke="#06275f" stroke-width="3"/><path d="M48 260a25 25 0 0 1 25-25h560a25 25 0 0 1 25 25v72H48z" class="n"/><circle cx="110" cy="285" r="30" fill="#fff"/><text x="110" y="296" class="j n h" font-size="28" text-anchor="middle">1</text><text x="180" y="298" fill="#fff" class="j h" font-size="34">業務の整理・見える化</text><g class="j n b row"><circle cx="115" cy="410" r="43" fill="#edf4fc"/><text x="115" y="427" font-size="50" text-anchor="middle">⌘</text><text x="185" y="420">業務フローの整理</text><line x1="185" y1="452" x2="610" y2="452" stroke="#ccd9e7"/><circle cx="115" cy="520" r="43" fill="#edf4fc"/><text x="115" y="537" font-size="50" text-anchor="middle">⌕</text><text x="185" y="530">ムダ・重複の洗い出し</text><line x1="185" y1="562" x2="610" y2="562" stroke="#ccd9e7"/><circle cx="115" cy="630" r="43" fill="#edf4fc"/><text x="115" y="647" font-size="50" text-anchor="middle">☑</text><text x="185" y="640">優先順位の明確化</text><line x1="185" y1="672" x2="610" y2="672" stroke="#ccd9e7"/><circle cx="115" cy="740" r="43" fill="#edf4fc"/><text x="115" y="757" font-size="50" text-anchor="middle">◎</text><text x="185" y="750">改善対象の特定</text></g><circle cx="724" cy="535" r="42" class="n"/><text x="724" y="552" fill="#fff" font-size="50" text-anchor="middle">⇄</text><rect x="790" y="235" width="610" height="600" rx="24" fill="#fff" stroke="#f06a00" stroke-width="3"/><path d="M790 260a25 25 0 0 1 25-25h560a25 25 0 0 1 25 25v72H790z" class="o"/><circle cx="852" cy="285" r="30" fill="#fff"/><text x="852" y="296" class="j o h" font-size="28" text-anchor="middle">2</text><text x="920" y="298" fill="#fff" class="j h" font-size="32">ツール導入・自動化・小規模開発</text><g class="j n b row"><circle cx="857" cy="410" r="43" fill="#fff0e4"/><text x="857" y="427" class="o" font-size="50" text-anchor="middle">▣</text><text x="927" y="420">既存ツールの活用</text><line x1="927" y1="452" x2="1350" y2="452" stroke="#efbf98"/><circle cx="857" cy="520" r="43" fill="#fff0e4"/><text x="857" y="537" class="o" font-size="50" text-anchor="middle">⚙</text><text x="927" y="530">入力・集計の自動化</text><line x1="927" y1="562" x2="1350" y2="562" stroke="#efbf98"/><circle cx="857" cy="630" r="43" fill="#fff0e4"/><text x="857" y="647" class="o" font-size="50" text-anchor="middle">▥</text><text x="927" y="640">管理方法の再設計</text><line x1="927" y1="672" x2="1350" y2="672" stroke="#efbf98"/><circle cx="857" cy="740" r="43" fill="#fff0e4"/><text x="857" y="757" class="o" font-size="50" text-anchor="middle">◆</text><text x="927" y="750">業務に合う仕組みづくり</text></g><rect x="48" y="900" width="1352" height="110" rx="24" fill="#fff" stroke="#06275f" stroke-width="4"/><circle cx="105" cy="955" r="39" class="n"/><text x="105" y="970" fill="#fff" font-size="45" text-anchor="middle">◎</text><text x="165" y="964" class="j n h" font-size="27">いきなり大きなシステムを入れるのではなく、<tspan class="o">まず現場に合う改善から始めます。</tspan></text><rect x="1235" y="928" width="140" height="55" rx="28" class="n"/><text x="1305" y="965" fill="#fff" class="j b" font-size="24" text-anchor="middle">03 / 10</text></svg>