<svg xmlns="http://www.w3.org/2000/svg" viewBox="0 0 1448 1086"><style>.j{font-family:'Noto Sans JP','Yu Gothic',Meiryo,sans-serif}.n{fill:#06275f}.o{fill:#f06a00}.h{font-weight:900}.b{font-weight:800}</style><rect width="1448" height="1086" fill="white"/><polygon points="1270,0 1448,0 1448,180" class="n"/><polygon points="1210,0 1270,0 1448,180 1448,240" fill="#e8eef6"/><text x="50" y="92" class="j n h" font-size="66">支援の進め方</text><line x1="52" x2="145" y1="125" y2="125" stroke="#f06a00" stroke-width="7"/><text x="52" y="168" class="j n b" font-size="24">エイデックマネジメント｜企業向け業務改善・DX支援</text><g class="j"><g><rect x="48" y="275" width="250" height="535" rx="22" fill="white" stroke="#b9c9dc" stroke-width="2"/><circle cx="173" cy="275" r="32" class="n"/><text x="173" y="286" fill="white" font-size="28" class="b" text-anchor="middle">1</text><text x="173" y="370" class="n h" font-size="28" text-anchor="middle">現状確認</text><circle cx="173" cy="520" r="82" fill="#f1f6fc"/><text x="173" y="545" class="n" font-size="82" text-anchor="middle">☑</text><text x="173" y="730" class="n b" font-size="21" text-anchor="middle">課題と現場の流れを把握</text></g><path d="M300 530h26v-18l28 28-28 28v-18h-26z" class="n"/><g><rect x="348" y="275" width="250" height="535" rx="22" fill="white" stroke="#b9c9dc" stroke-width="2"/><circle cx="473" cy="275" r="32" class="n"/><text x="473" y="286" fill="white" font-size="28" class="b" text-anchor="middle">2</text><text x="473" y="370" class="n h" font-size="27" text-anchor="middle">対象業務の選定</text><circle cx="473" cy="520" r="82" fill="#f1f6fc"/><text x="473" y="545" class="o" font-size="82" text-anchor="middle">◎</text><text x="473" y="720" class="n b" font-size="20" text-anchor="middle"><tspan x="473">最初に手をつける</tspan><tspan x="473" dy="28">1業務を決定</tspan></text></g><path d="M600 530h26v-18l28 28-28 28v-18h-26z" class="n"/><g><rect x="648" y="275" width="250" height="535" rx="22" fill="white" stroke="#b9c9dc" stroke-width="2"/><circle cx="773" cy="275" r="32" class="n"/><text x="773" y="286" fill="white" font-size="28" class="b" text-anchor="middle">3</text><text x="773" y="370" class="n h" font-size="27" text-anchor="middle">改善方法の設計</text><circle cx="773" cy="520" r="82" fill="#f1f6fc"/><text x="773" y="545" class="n" font-size="76" text-anchor="middle">⚙</text><text x="773" y="720" class="n b" font-size="20" text-anchor="middle"><tspan x="773">ツール・運用・自動化</tspan><tspan x="773" dy="28">を設計</tspan></text></g><path d="M900 530h26v-18l28 28-28 28v-18h-26z" class="n"/><g><rect x="948" y="275" width="225" height="535" rx="22" fill="white" stroke="#b9c9dc" stroke-width="2"/><circle cx="1060" cy="275" r="32" class="n"/><text x="1060" y="286" fill="white" font-size="28" class="b" text-anchor="middle">4</text><text x="1060" y="370" class="n h" font-size="28" text-anchor="middle">小さく試行</text><circle cx="1060" cy="520" r="82" fill="#f1f6fc"/><text x="1060" y="545" class="o" font-size="82" text-anchor="middle">✓</text><text x="1060" y="730" class="n b" font-size="20" text-anchor="middle">小規模に始めて検証</text></g><path d="M1175 530h22v-18l26 28-26 28v-18h-22z" class="n"/><g><rect x="1225" y="275" width="175" height="535" rx="22" fill="white" stroke="#b9c9dc" stroke-width="2"/><circle cx="1312" cy="275" r="32" class="n"/><text x="1312" y="286" fill="white" font-size="28" class="b" text-anchor="middle">5</text><text x="1312" y="370" class="n h" font-size="27" text-anchor="middle">定着・改善</text><circle cx="1312" cy="520" r="72" fill="#f1f6fc"/><text x="1312" y="545" class="o" font-size="74" text-anchor="middle">↗</text><text x="1312" y="715" class="n b" font-size="18" text-anchor="middle"><tspan x="1312">使える形に整えながら</tspan><tspan x="1312" dy="27">継続</tspan></text></g></g><rect x="48" y="900" width="1352" height="110" rx="24" fill="white" stroke="#06275f" stroke-width="4"/><circle cx="105" cy="955" r="39" class="n"/><text x="105" y="970" fill="white" font-size="45" text-anchor="middle">◎</text><text x="165" y="964" class="j n h" font-size="27">最初から全部を変えるのではなく、効果が出やすいところから順番に進めます。</text><rect x="1235" y="928" width="140" height="55" rx="28" class="n"/><text x="1305" y="965" fill="white" class="j b" font-size="24" text-anchor="middle">04 / 10</text></svg>