<svg baseProfile="full" version="1.1" viewBox="0 0 1448 1086" xmlns="http://www.w3.org/2000/svg"><rect width="1448" height="1086" fill="#fff"/><text x="50" y="86" fill="#06275f" font-family="'Noto Sans JP','Yu Gothic',Meiryo,sans-serif" font-size="66" font-weight="900"><tspan x="50" dy="0">エイデックの支援姿勢</tspan></text><line x1="52" x2="145" y1="114" y2="114" stroke="#f06a00" stroke-linecap="round" stroke-width="7"/><text x="52" y="158" fill="#06275f" font-family="'Noto Sans JP','Yu Gothic',Meiryo,sans-serif" font-size="24" font-weight="700"><tspan x="52" dy="0">エイデックマネジメント｜企業向け業務改善・DX支援</tspan></text><polygon points="1270 0 1448 0 1448 180" fill="#06275f"/><polygon points="1210 0 1270 0 1448 180 1448 240" fill="#e8eef6"/><rect x="515" y="260" width="420" height="58" rx="30" fill="#06275f"/><text x="725" y="300" fill="#fff" font-family="'Noto Sans JP','Yu Gothic',Meiryo,sans-serif" font-size="30" font-weight="800" text-anchor="middle">5つの支援原則</text><rect x="55" y="350" width="240" height="430" rx="22" fill="#fff" stroke="#c7d4e3" stroke-width="2"/><circle cx="175" cy="348" r="30" fill="#06275f"/><text x="175" y="359" fill="#fff" font-family="sans-serif" font-size="28" font-weight="800" text-anchor="middle">1</text><text x="175" y="440" fill="#06275f" font-family="'Noto Sans JP','Yu Gothic',Meiryo,sans-serif" font-size="24" font-weight="900" text-anchor="middle"><tspan x="175">専門用語で</tspan><tspan x="175" dy="32">押し切らない</tspan></text><circle cx="175" cy="620" r="54" fill="#fff6ef"/><text x="175" y="638" fill="#f06a00" font-family="sans-serif" font-size="72" font-weight="700" text-anchor="middle">…</text><rect x="330" y="350" width="240" height="430" rx="22" fill="#fff" stroke="#c7d4e3" stroke-width="2"/><circle cx="450" cy="348" r="30" fill="#06275f"/><text x="450" y="359" fill="#fff" font-family="sans-serif" font-size="28" font-weight="800" text-anchor="middle">2</text><text x="450" y="440" fill="#06275f" font-family="'Noto Sans JP','Yu Gothic',Meiryo,sans-serif" font-size="24" font-weight="900" text-anchor="middle"><tspan x="450">現場で使える形を</tspan><tspan x="450" dy="32">優先する</tspan></text><circle cx="450" cy="620" r="54" fill="#fff6ef"/><text x="450" y="638" fill="#f06a00" font-family="sans-serif" font-size="72" font-weight="700" text-anchor="middle">✓</text><rect x="605" y="350" width="240" height="430" rx="22" fill="#fff" stroke="#c7d4e3" stroke-width="2"/><circle cx="725" cy="348" r="30" fill="#06275f"/><text x="725" y="359" fill="#fff" font-family="sans-serif" font-size="28" font-weight="800" text-anchor="middle">3</text><text x="725" y="440" fill="#06275f" font-family="'Noto Sans JP','Yu Gothic',Meiryo,sans-serif" font-size="24" font-weight="900" text-anchor="middle"><tspan x="725">既存ツールを</tspan><tspan x="725" dy="32">活かす</tspan></text><circle cx="725" cy="620" r="54" fill="#fff6ef"/><text x="725" y="638" fill="#f06a00" font-family="sans-serif" font-size="72" font-weight="700" text-anchor="middle">▣</text><rect x="880" y="350" width="240" height="430" rx="22" fill="#fff" stroke="#c7d4e3" stroke-width="2"/><circle cx="1000" cy="348" r="30" fill="#06275f"/><text x="1000" y="359" fill="#fff" font-family="sans-serif" font-size="28" font-weight="800" text-anchor="middle">4</text><text x="1000" y="440" fill="#06275f" font-family="'Noto Sans JP','Yu Gothic',Meiryo,sans-serif" font-size="24" font-weight="900" text-anchor="middle"><tspan x="1000">小さく始めて</tspan><tspan x="1000" dy="32">育てる</tspan></text><circle cx="1000" cy="620" r="54" fill="#fff6ef"/><text x="1000" y="638" fill="#f06a00" font-family="sans-serif" font-size="72" font-weight="700" text-anchor="middle">↗</text><rect x="1155" y="350" width="240" height="430" rx="22" fill="#fff" stroke="#c7d4e3" stroke-width="2"/><circle cx="1275" cy="348" r="30" fill="#06275f"/><text x="1275" y="359" fill="#fff" font-family="sans-serif" font-size="28" font-weight="800" text-anchor="middle">5</text><text x="1275" y="440" fill="#06275f" font-family="'Noto Sans JP','Yu Gothic',Meiryo,sans-serif" font-size="24" font-weight="900" text-anchor="middle"><tspan x="1275">導入後の定着まで</tspan><tspan x="1275" dy="32">伴走する</tspan></text><circle cx="1275" cy="620" r="54" fill="#fff6ef"/><text x="1275" y="638" fill="#f06a00" font-family="sans-serif" font-size="72" font-weight="700" text-anchor="middle">⇢</text><rect x="48" y="820" width="1352" height="100" rx="20" fill="#fff8f1" stroke="#efb27d" stroke-width="2"/><text x="105" y="883" fill="#f06a00" font-family="sans-serif" font-size="52" font-weight="700" text-anchor="middle">♡</text><text x="745" y="881" fill="#06275f" font-family="'Noto Sans JP','Yu Gothic',Meiryo,sans-serif" font-size="31" font-weight="800" text-anchor="middle">大切なのは“立派な仕組み”ではなく、“現場で回る仕組み”です。</text><rect x="1235" y="950" width="140" height="55" rx="28" fill="#06275f"/><text x="1305" y="987" fill="#fff" font-family="sans-serif" font-size="24" font-weight="800" text-anchor="middle">06 / 10</text></svg>