<svg xmlns="http://www.w3.org/2000/svg" viewBox="0 0 1448 1086"><style>.j{font-family:'Noto Sans JP','Yu Gothic',Meiryo,sans-serif}.n{fill:#06275f}.o{fill:#f06a00}.h{font-weight:900}.b{font-weight:800}.card{fill:#fff;stroke:#b9c9dc;stroke-width:2}</style><rect width="1448" height="1086" fill="#fff"/><polygon points="1270,0 1448,0 1448,180" class="n"/><polygon points="1210,0 1270,0 1448,180 1448,240" fill="#e8eef6"/><text x="50" y="92" class="j n h" font-size="66">最初に改善する1業務の例</text><line x1="52" x2="145" y1="125" y2="125" stroke="#f06a00" stroke-width="7"/><text x="52" y="168" class="j n b" font-size="24">エイデックマネジメント｜企業向け業務改善・DX支援</text><g class="j"><g><rect x="48" y="250" width="250" height="390" rx="22" class="card"/><text x="173" y="420" class="o" font-size="78" text-anchor="middle">▦</text><text x="173" y="550" class="n h" font-size="29" text-anchor="middle">Excel転記</text></g><g><rect x="323" y="250" width="250" height="390" rx="22" class="card"/><text x="448" y="420" class="o" font-size="78" text-anchor="middle">▥</text><text x="448" y="550" class="n h" font-size="29" text-anchor="middle">月次集計</text></g><g><rect x="598" y="240" width="250" height="410" rx="22" fill="#fff7ef" stroke="#f06a00" stroke-width="3"/><rect x="627" y="270" width="192" height="52" rx="26" class="o"/><text x="723" y="305" fill="#fff" class="b" font-size="23" text-anchor="middle">まずは1業務から</text><text x="723" y="435" class="o" font-size="82" text-anchor="middle">◎</text><text x="723" y="555" class="n h" font-size="29" text-anchor="middle">予約管理</text></g><g><rect x="873" y="250" width="250" height="390" rx="22" class="card"/><text x="998" y="420" class="o" font-size="78" text-anchor="middle">▣</text><text x="998" y="550" class="n h" font-size="29" text-anchor="middle">在庫管理</text></g><g><rect x="1148" y="250" width="250" height="390" rx="22" class="card"/><text x="1273" y="420" class="o" font-size="78" text-anchor="middle">☎</text><text x="1273" y="550" class="n h" font-size="27" text-anchor="middle">問い合わせ管理</text></g></g><rect x="48" y="690" width="1352" height="155" rx="22" fill="#fafcff" stroke="#b9c9dc" stroke-width="2"/><rect x="70" y="723" width="210" height="88" rx="44" class="n"/><text x="175" y="780" fill="#fff" class="j h" font-size="28" text-anchor="middle">選定の基準</text><line x1="305" y1="710" x2="305" y2="825" stroke="#a8bad0" stroke-dasharray="5 6"/><line x1="680" y1="710" x2="680" y2="825" stroke="#a8bad0" stroke-dasharray="5 6"/><line x1="1045" y1="710" x2="1045" y2="825" stroke="#a8bad0" stroke-dasharray="5 6"/><g class="j"><text x="350" y="755" class="o" font-size="34">✓</text><text x="395" y="754" class="n h" font-size="27">頻度が高い</text><text x="350" y="797" class="n b" font-size="19">日常的に繰り返し発生している</text><text x="725" y="755" class="o" font-size="34">✓</text><text x="770" y="754" class="n h" font-size="27">時間がかかる</text><text x="725" y="797" class="n b" font-size="19">多くの工数・時間を要している</text><text x="1090" y="755" class="o" font-size="34">✓</text><text x="1135" y="754" class="n h" font-size="27">ミスが起きやすい</text><text x="1090" y="797" class="n b" font-size="19">ヒューマンエラーが発生しやすい</text></g><rect x="48" y="900" width="1352" height="110" rx="24" fill="#fff" stroke="#06275f" stroke-width="4"/><circle cx="105" cy="955" r="39" class="n"/><text x="105" y="970" fill="#fff" font-size="45" text-anchor="middle">◎</text><text x="165" y="964" class="j n h" font-size="27">最も負荷の大きい1業務を選ぶことで、改善効果を体感しやすくなります。</text><rect x="1235" y="928" width="140" height="55" rx="28" class="n"/><text x="1305" y="965" fill="#fff" class="j b" font-size="24" text-anchor="middle">07 / 10</text></svg>