<svg xmlns="http://www.w3.org/2000/svg" viewBox="0 0 1448 1086"><style>.j{font-family:'Noto Sans JP','Yu Gothic',Meiryo,sans-serif}.n{fill:#06275f}.o{fill:#f06a00}.h{font-weight:900}.b{font-weight:800}</style><rect width="1448" height="1086" fill="#fff"/><polygon points="1270,0 1448,0 1448,180" class="n"/><polygon points="1210,0 1270,0 1448,180 1448,240" fill="#e8eef6"/><text x="50" y="92" class="j n h" font-size="66">支援プランの考え方</text><line x1="52" x2="145" y1="125" y2="125" stroke="#f06a00" stroke-width="7"/><text x="52" y="168" class="j n b" font-size="24">エイデックマネジメント｜企業向け業務改善・DX支援</text><g class="j"><g><rect x="55" y="250" width="420" height="575" rx="24" fill="#fff" stroke="#06275f" stroke-width="3"/><path d="M55 274a24 24 0 0 1 24-24h372a24 24 0 0 1 24 24v76H55z" class="n"/><circle cx="115" cy="300" r="30" fill="#fff"/><text x="115" y="311" class="n h" font-size="28" text-anchor="middle">1</text><text x="180" y="312" fill="#fff" class="h" font-size="31">整理・アドバイス型</text><circle cx="265" cy="510" r="100" fill="#f1f6fc"/><text x="265" y="545" class="n" font-size="105" text-anchor="middle">⌕</text><line x1="95" y1="650" x2="435" y2="650" stroke="#b7c8db"/><text x="105" y="710" class="n" font-size="30">●</text><text x="150" y="710" class="n b" font-size="25">現状整理・課題整理</text><text x="105" y="770" class="n" font-size="30">●</text><text x="150" y="770" class="n b" font-size="24">優先順位と改善方針を明確化</text></g><g><rect x="514" y="250" width="420" height="575" rx="24" fill="#fff" stroke="#f06a00" stroke-width="3"/><path d="M514 274a24 24 0 0 1 24-24h372a24 24 0 0 1 24 24v76H514z" class="o"/><circle cx="574" cy="300" r="30" fill="#fff"/><text x="574" y="311" class="o h" font-size="28" text-anchor="middle">2</text><text x="639" y="312" fill="#fff" class="h" font-size="31">導入・改善伴走型</text><circle cx="724" cy="510" r="100" fill="#fff3e9"/><text x="724" y="545" class="o" font-size="105" text-anchor="middle">↗</text><line x1="554" y1="650" x2="894" y2="650" stroke="#efbd91"/><text x="564" y="710" class="o" font-size="30">●</text><text x="609" y="710" class="n b" font-size="25">ツール活用・運用改善</text><text x="564" y="770" class="o" font-size="30">●</text><text x="609" y="770" class="n b" font-size="24">現場に定着する形まで伴走</text></g><g><rect x="973" y="250" width="420" height="575" rx="24" fill="#fff" stroke="#06275f" stroke-width="3"/><path d="M973 274a24 24 0 0 1 24-24h372a24 24 0 0 1 24 24v76H973z" class="n"/><circle cx="1033" cy="300" r="30" fill="#fff"/><text x="1033" y="311" class="n h" font-size="28" text-anchor="middle">3</text><text x="1098" y="312" fill="#fff" class="h" font-size="31">自動化・仕組み化型</text><circle cx="1183" cy="510" r="100" fill="#f1f6fc"/><rect x="1095" y="450" width="176" height="112" rx="10" fill="#fff" stroke="#06275f" stroke-width="7"/><text x="1183" y="530" class="o" font-size="72" text-anchor="middle">⚙</text><line x1="1013" y1="650" x2="1353" y2="650" stroke="#b7c8db"/><text x="1023" y="710" class="n" font-size="30">●</text><text x="1068" y="710" class="n b" font-size="25">入力・集計の自動化</text><text x="1023" y="770" class="n" font-size="30">●</text><text x="1068" y="770" class="n b" font-size="24">業務に合う仕組みを構築</text></g></g><rect x="48" y="900" width="1352" height="110" rx="24" fill="#fff" stroke="#06275f" stroke-width="4"/><circle cx="105" cy="955" r="39" class="n"/><text x="105" y="970" fill="#fff" font-size="45" text-anchor="middle">◎</text><text x="165" y="964" class="j n h" font-size="27">詳細な内容・費用は、対象業務と必要範囲を確認した上で個別にご提案します。</text><rect x="1235" y="928" width="140" height="55" rx="28" class="n"/><text x="1305" y="965" fill="#fff" class="j b" font-size="24" text-anchor="middle">08 / 10</text></svg>