<svg xmlns="http://www.w3.org/2000/svg" viewBox="0 0 1448 1086"><style>.j{font-family:'Noto Sans JP','Yu Gothic',Meiryo,sans-serif}.n{fill:#06275f}.o{fill:#f06a00}.h{font-weight:900}.b{font-weight:800}.card{fill:#fff;stroke:#b9c9dc;stroke-width:2}</style><rect width="1448" height="1086" fill="#fff"/><polygon points="1270,0 1448,0 1448,180" class="n"/><polygon points="1210,0 1270,0 1448,180 1448,240" fill="#e8eef6"/><text x="50" y="92" class="j n h" font-size="66">まずは業務診断から</text><line x1="52" x2="145" y1="125" y2="125" stroke="#f06a00" stroke-width="7"/><text x="52" y="168" class="j n b" font-size="24">エイデックマネジメント｜企業向け業務改善・DX支援</text><g class="j"><g><rect x="48" y="250" width="310" height="390" rx="22" class="card"/><circle cx="203" cy="250" r="32" class="o"/><text x="203" y="262" fill="#fff" class="b" font-size="29" text-anchor="middle">1</text><text x="203" y="355" class="n h" font-size="29" text-anchor="middle">何の業務か？</text><circle cx="203" cy="495" r="88" fill="#f1f6fc"/><text x="203" y="530" class="n" font-size="96" text-anchor="middle">☑</text></g><g><rect x="395" y="250" width="310" height="390" rx="22" class="card"/><circle cx="550" cy="250" r="32" class="o"/><text x="550" y="262" fill="#fff" class="b" font-size="29" text-anchor="middle">2</text><text x="550" y="345" class="n h" font-size="28" text-anchor="middle"><tspan x="550">誰が担当している</tspan><tspan x="550" dy="38">か？</tspan></text><circle cx="550" cy="495" r="88" fill="#f1f6fc"/><circle cx="550" cy="460" r="38" class="n"/><path d="M480 570q70-115 140 0z" class="n"/></g><g><rect x="742" y="250" width="310" height="390" rx="22" class="card"/><circle cx="897" cy="250" r="32" class="o"/><text x="897" y="262" fill="#fff" class="b" font-size="29" text-anchor="middle">3</text><text x="897" y="340" class="n h" font-size="27" text-anchor="middle"><tspan x="897">どれくらい時間が</tspan><tspan x="897" dy="38">かかっているか？</tspan></text><circle cx="897" cy="495" r="88" fill="#f1f6fc"/><circle cx="897" cy="495" r="58" fill="#fff" stroke="#f06a00" stroke-width="7"/><path d="M897 455v42l35 20" fill="none" stroke="#f06a00" stroke-width="8" stroke-linecap="round"/></g><g><rect x="1089" y="250" width="310" height="390" rx="22" class="card"/><circle cx="1244" cy="250" r="32" class="o"/><text x="1244" y="262" fill="#fff" class="b" font-size="29" text-anchor="middle">4</text><text x="1244" y="340" class="n h" font-size="26" text-anchor="middle"><tspan x="1244">どこでミス・手戻りが</tspan><tspan x="1244" dy="38">起きるか？</tspan></text><circle cx="1244" cy="495" r="88" fill="#f1f6fc"/><path d="M1244 420l70 125h-140z" class="o"/><text x="1244" y="525" fill="#fff" font-size="70" font-weight="900" text-anchor="middle">!</text></g></g><rect x="48" y="690" width="1352" height="155" rx="22" fill="#fafcff" stroke="#b9c9dc" stroke-width="2"/><rect x="525" y="660" width="400" height="60" rx="30" class="n"/><text x="725" y="701" fill="#fff" class="j h" font-size="30" text-anchor="middle">診断で整理すること</text><line x1="385" y1="720" x2="385" y2="825" stroke="#a8bad0" stroke-dasharray="5 6"/><line x1="720" y1="720" x2="720" y2="825" stroke="#a8bad0" stroke-dasharray="5 6"/><line x1="1055" y1="720" x2="1055" y2="825" stroke="#a8bad0" stroke-dasharray="5 6"/><g class="j n h" font-size="27"><text x="105" y="785" class="o" font-size="55">⇄</text><text x="195" y="780">現在の流れ</text><text x="450" y="785" class="o" font-size="55">…</text><text x="535" y="780">困りごと</text><text x="775" y="785" class="o" font-size="55">↗</text><text x="860" y="780">改善の優先度</text><text x="1110" y="785" class="o" font-size="55">✦</text><text x="1190" y="780">次に試す方法</text></g><rect x="48" y="900" width="1352" height="110" rx="24" fill="#fff" stroke="#06275f" stroke-width="4"/><circle cx="105" cy="955" r="39" class="n"/><text x="105" y="970" fill="#fff" font-size="45" text-anchor="middle">◎</text><text x="165" y="964" class="j n h" font-size="28">まずは現状を整理し、「どこから改善すべきか」を明確にします。</text><rect x="1235" y="928" width="140" height="55" rx="28" class="n"/><text x="1305" y="965" fill="#fff" class="j b" font-size="24" text-anchor="middle">09 / 10</text></svg>